<svg width="127" height="126" viewBox="0 0 127 126" fill="none" xmlns="http://www.w3.org/2000/svg">
<path d="M97.8538 2.64844H29.9881C14.9956 2.64844 2.8418 14.6378 2.8418 29.4273V96.3746C2.8418 111.164 14.9956 123.154 29.9881 123.154H97.8538C112.846 123.154 125 111.164 125 96.3746V29.4273C125 14.6378 112.846 2.64844 97.8538 2.64844Z" fill="#2F88FF" stroke="black" stroke-width="4" stroke-linejoin="round"/>
<path d="M63.9207 89.6799C78.9133 89.6799 91.067 77.6906 91.067 62.901C91.067 48.1113 78.9133 36.1221 63.9207 36.1221C48.9281 36.1221 36.7744 48.1113 36.7744 62.901C36.7744 77.6906 48.9281 89.6799 63.9207 89.6799Z" fill="#43CCF8" stroke="white" stroke-width="4" stroke-linejoin="round"/>
<path d="M101.247 32.7747C104.995 32.7747 108.034 29.7775 108.034 26.08C108.034 22.3825 104.995 19.3853 101.247 19.3853C97.4988 19.3853 94.4604 22.3825 94.4604 26.08C94.4604 29.7775 97.4988 32.7747 101.247 32.7747Z" fill="white"/>
</svg>
