<svg width="122" height="122" viewBox="0 0 122 122" fill="none" xmlns="http://www.w3.org/2000/svg">
<path d="M103.95 103.388H85.8732V75.409C85.8732 68.7372 85.7527 60.1483 76.4716 60.1483C67.0566 60.1483 65.616 67.4179 65.616 74.9234V103.386H47.54V45.85H64.893V53.713H65.1361C66.8727 50.7781 69.3822 48.3638 72.3974 46.727C75.4125 45.0903 78.8204 44.2925 82.258 44.4186C100.579 44.4186 103.957 56.3294 103.957 71.8246L103.95 103.388ZM27.1431 37.9855C21.3495 37.9865 16.652 33.3452 16.6511 27.6191C16.6501 21.8931 21.3457 17.2504 27.1393 17.2494C32.9328 17.248 37.6303 21.8893 37.6313 27.6154C37.6318 30.3651 36.5271 33.0025 34.5602 34.9472C32.5933 36.892 29.9253 37.9849 27.1431 37.9855ZM36.1816 103.389H18.086V45.85H36.1811L36.1816 103.389ZM112.962 0.657213H9.00274C4.08938 0.602576 0.0600469 4.49263 0 9.34872V112.524C0.0581406 117.383 4.087 121.277 9.00226 121.226H112.962C117.887 121.286 121.932 117.392 122 112.524V9.34072C121.93 4.4752 117.885 0.58562 112.962 0.649206" fill="#0A66C2"/>
</svg>
