<?xml version="1.0" encoding="utf-8"?>
<!-- Generator: Adobe Illustrator 24.1.1, SVG Export Plug-In . SVG Version: 6.00 Build 0)  -->
<svg version="1.1" id="Layer_1" xmlns="http://www.w3.org/2000/svg" xmlns:xlink="http://www.w3.org/1999/xlink" x="0px" y="0px"
	 viewBox="0 0 512 512" style="enable-background:new 0 0 512 512;" xml:space="preserve">
<g>
	<path d="M51.2,76.8h110.7l36.7,91.7l-45.3,27.2c-11.4,6.8-15.7,21.4-9.8,33.3c29.9,60.6,79,109.7,139.6,139.6
		c11.9,5.9,26.4,1.6,33.3-9.8l27.2-45.3l91.7,36.7l0,110.7c-106.1,0-202-42.9-271.5-112.5C94.1,278.8,51.2,182.9,51.2,76.8
		L51.2,76.8c14.1,0,25.6-11.5,25.6-25.6c0-14.1-11.5-25.6-25.6-25.6C22.9,25.6,0,48.5,0,76.8C0,317.2,194.8,512,435.2,512
		c28.3,0,51.2-22.9,51.2-51.2v-128c0-10.4-6.4-19.9-16.1-23.8l-128-51.2c-11.7-4.7-25-0.2-31.5,10.6l-38.4,64l22,13.2l11.3-23
		c-50.5-24.9-91.4-65.8-116.4-116.4l-23,11.3l13.2,22l64-38.4c10.8-6.5,15.3-19.8,10.6-31.5L203,41.7c-3.9-9.7-13.3-16.1-23.8-16.1
		h-128c-14.1,0-25.6,11.5-25.6,25.6C25.6,65.3,37.1,76.8,51.2,76.8L51.2,76.8z"/>
	<path d="M332.8,153.6c14.1,0,25.6,11.5,25.6,25.6c0,14.1,11.5,25.6,25.6,25.6s25.6-11.5,25.6-25.6c0-42.4-34.4-76.8-76.8-76.8
		c-14.1,0-25.6,11.5-25.6,25.6C307.2,142.1,318.7,153.6,332.8,153.6L332.8,153.6z"/>
	<path d="M332.8,51.2c35.4,0,67.3,14.3,90.5,37.5c23.2,23.2,37.5,55.1,37.5,90.5c0,14.1,11.5,25.6,25.6,25.6
		c14.1,0,25.6-11.5,25.6-25.6C512,80.2,431.8,0,332.8,0c-14.1,0-25.6,11.5-25.6,25.6C307.2,39.7,318.7,51.2,332.8,51.2L332.8,51.2z"
		/>
</g>
</svg>
